# xmcd CD database file
#
# Track frame offsets:
#	150
#	13581
#	25240
#	38718
#	50825
#	61909
#	75929
#	87678
#	99557
#	109062
#	120388
#	131705
#	143501
#	156274
#	167866
#	180671
#	195123
#	207835
#	221994
#	234538
#	247045
#
# Disc length: 3471 seconds
#
# Revision: 0
# Processed by: cddbd v1.5.1PL0 Copyright (c) Steve Scherf et al.
# Submitted via: CDex 1.51
#
DISCID=200d8d15
DTITLE=Roy Brown - 1951-1953
DYEAR=2004
DGENRE=Blues
TTITLE0=Brown Angel
TTITLE1=Rock-A Bye-Baby
TTITLE2=Lonesome Lover
TTITLE3=Answer To Big Town
TTITLE4=Money Can't Buy Love
TTITLE5=Travelin' Man
TTITLE6=Hurry Hurry Baby
TTITLE7=Midnight Lover Man
TTITLE8=Old Age Boogie - Part 1
TTITLE9=Old Age Boogie - Part 2
TTITLE10=Letter From Home
TTITLE11=Gamblin' Man
TTITLE12=Grandpa Stole My Baby
TTITLE13=Mr Hound Dog's In Town
TTITLE14=Caldonia's Wedding Day
TTITLE15=Laughing But Crying
TTITLE16=A Fool In Love
TTITLE17=Crazy Crazy Woman
TTITLE18=Everything's All Right
TTITLE19=Bootleggin' Baby
TTITLE20=Trouble At Midnight
EXTD=YEAR: 2004
EXTT0=
EXTT1=
EXTT2=
EXTT3=
EXTT4=
EXTT5=
EXTT6=
EXTT7=
EXTT8=
EXTT9=
EXTT10=
EXTT11=
EXTT12=
EXTT13=
EXTT14=
EXTT15=
EXTT16=
EXTT17=
EXTT18=
EXTT19=
EXTT20=
PLAYORDER=
